PathFileType	4	(X/Y/Z)	Walk10.trc
DataRate	CameraRate	NumFrames	NumMarkers	Units	OrigDataRate	OrigDataStartFrame	OrigNumFrames
200.000000	200.000000	4	59	mm	200.000000	156	470
Frame#	Times		RCAR		LElbow		LFA1		LWRU		LTH3		LLFC		LTB1		LTB3		RTH2		LCAR		LTH2		LMT5		LMT1		LToe		LASI		LBHD		LUA1		C7		RFA1		RWRU		RPSI		T10		LTH4		LPSI		LACR1		LLMAL		RBHD		RUA1		LElbowM		LFHD		RElbow		LTB2		LWRR		RACR1		RFHD		RToe		RElbowM		RTB2		RLFC		RCAL		RMT5		RLMAL		LMFC		RTB1		RTH3		STRN		RTB4		RASI		RTB3		RMT1		RMFC		LTB4		RTH4		LTH1		LCAL		LMMAL		RMMAL		RTH1		RWRR
			X1	Y1	Z1	X2	Y2	Z2	X3	Y3	Z3	X4	Y4	Z4	X5	Y5	Z5	X6	Y6	Z6	X7	Y7	Z7	X8	Y8	Z8	X9	Y9	Z9	X10	Y10	Z10	X11	Y11	Z11	X12	Y12	Z12	X13	Y13	Z13	X14	Y14	Z14	X15	Y15	Z15	X16	Y16	Z16	X17	Y17	Z17	X18	Y18	Z18	X19	Y19	Z19	X20	Y20	Z20	X21	Y21	Z21	X22	Y22	Z22	X23	Y23	Z23	X24	Y24	Z24	X25	Y25	Z25	X26	Y26	Z26	X27	Y27	Z27	X28	Y28	Z28	X29	Y29	Z29	X30	Y30	Z30	X31	Y31	Z31	X32	Y32	Z32	X33	Y33	Z33	X34	Y34	Z34	X35	Y35	Z35	X36	Y36	Z36	X37	Y37	Z37	X38	Y38	Z38	X39	Y39	Z39	X40	Y40	Z40	X41	Y41	Z41	X42	Y42	Z42	X43	Y43	Z43	X44	Y44	Z44	X45	Y45	Z45	X46	Y46	Z46	X47	Y47	Z47	X48	Y48	Z48	X49	Y49	Z49	X50	Y50	Z50	X51	Y51	Z51	X52	Y52	Z52	X53	Y53	Z53	X54	Y54	Z54	X55	Y55	Z55	X56	Y56	Z56	X57	Y57	Z57	X58	Y58	Z58	X59	Y59	Z59

156	0.78	-717.32	815.31	471.84	-613.08	1115.8	-180.36	-543.01	978.61	-171.69	-472.11	868.53	-139.65	-764.66	600.38	-22.759	-808.27	502.26	-7.1397	-817.89	358.81	76.344	-906.54	195.32	85.011	-510.98	704.97	264.12	-390.3	859.26	-142.25	-669.89	670.46	-16.754	-907.93	17.016	27.623	-864.8	36.008	114.54	-812.48	24.519	106.62	-611.08	1011.7	-19.065	-630.43	1624.6	41.828	-616.24	1272.9	-148.51	-686.68	1489.9	111.01	-784.4	988.97	442.96	-770.39	852.72	452.75	-808.24	1000.7	177.07	-807.97	1272.3	113.31	-736.03	686.43	-39.28	-814.66	1002.4	99.75	-607.71	1441	-48.688	-997.06	87.739	47.341	-626.63	1630.7	183.67	-704.86	1276.6	374.84	-654.14	1098	-115.5	-447.85	1622.9	81.565	-779.88	1138.5	409.63	-877.81	286.04	9.0607	-416.15	907.89	-92.756	-779.77	1409.7	236.59	-447.16	1625.1	157.82	-203.7	99.004	179.19	-796.46	1122.6	331.57	-435.86	280.42	236.89	-520.1	484.74	260.85	-430.78	25.327	134.36	-288.25	49.244	225.29	-394.83	71.071	192.91	-794.12	511.5	121.67	-428.54	388.5	189	-547.5	591.87	279.4	-529.08	1218.5	116.31	-406.91	298.77	175.17	-592.91	1012.2	269.97	-387.83	208.23	164.26	-246.26	83.469	155.52	-511.5	508	129.25	-860.69	280.03	82.34	-571.18	682.07	302.93	-704.94	772.92	-56.628	-1065.5	59.66	90.544	-970.31	107.98	129.76	-365.74	114.14	119.7	-602.42	771.44	315.62	-702.45	851.04	417.69
157	0.785	-712.63	813.88	472.68	-607.11	1115.1	-180.01	-536.73	978.01	-171.13	-465.53	868.18	-138.93	-758.92	599.61	-22.881	-802.82	501.62	-7.2358	-813.9	358.15	76.221	-904.54	195.76	84.771	-503.54	704.81	264.22	-383.69	859.15	-141.53	-663.99	669.52	-16.992	-907.97	17.013	27.695	-864.69	36.006	114.51	-812.52	24.475	106.57	-604.58	1010.7	-19.14	-624.13	1623.9	42.626	-610.19	1272.3	-148.09	-680.24	1489	111.66	-778.65	987.97	443.57	-765.45	851.63	453.58	-801.41	999.87	177.31	-801.39	1271.4	113.73	-730.16	685.64	-39.309	-807.93	1001.5	100.06	-601.51	1440.3	-48.26	-996.22	89.184	46.99	-620.18	1629.6	184.48	-698.29	1275.3	375.3	-648.09	1097.2	-115.07	-441.5	1622.3	82.168	-773.37	1137.3	410.06	-874.58	286.1	8.8124	-409.66	907.79	-92.123	-773.2	1408.5	237.17	-440.73	1624.2	158.44	-199.31	95.404	178.19	-789.99	1121.3	332.08	-429.77	279.47	236.13	-512.56	484.31	260.58	-427.46	25.312	133.51	-284.76	46.928	224.35	-390.75	70.075	192.02	-788.42	510.8	121.5	-421.77	387.49	188.36	-539.89	591.61	278.96	-522.41	1217.7	116.37	-400.84	297.65	174.42	-585.89	1011.2	269.83	-382.51	207.02	163.38	-242.21	80.589	154.55	-503.84	507.78	129.07	-857.65	279.89	82.152	-563.8	681.69	302.77	-698.95	772.12	-56.635	-1065	62.032	90.224	-969.26	109.17	129.44	-361.3	112.73	118.82	-595.29	770.94	315.69	-698.28	849.75	418.36
158	0.79	-707.82	812.48	473.5	-601.2	1114.4	-179.64	-530.55	977.44	-170.56	-459.09	867.84	-138.23	-752.97	598.82	-22.993	-797.13	500.95	-7.3354	-809.71	357.48	76.076	-902.38	196.25	84.502	-495.99	704.77	264.33	-377.22	859.03	-140.82	-657.92	668.61	-17.216	-908.01	17.022	27.782	-864.57	35.995	114.48	-812.57	24.428	106.51	-598.02	1009.8	-19.169	-617.79	1623.3	43.438	-604.16	1271.7	-147.67	-673.77	1488.2	112.33	-772.79	986.98	444.18	-760.4	850.56	454.39	-794.56	999.06	177.53	-794.79	1270.6	114.16	-724.12	684.84	-39.322	-801.17	1000.6	100.34	-595.3	1439.7	-47.821	-995.29	90.757	46.612	-613.7	1628.7	185.3	-691.66	1274	375.76	-642.11	1096.5	-114.63	-435.12	1621.7	82.782	-766.77	1136.1	410.51	-871.17	286.19	8.5413	-403.3	907.68	-91.5	-766.6	1407.3	237.77	-434.27	1623.5	159.08	-195.36	91.41	177.21	-783.44	1120.1	332.6	-423.79	278.56	235.44	-504.91	484.01	260.4	-424.72	25.407	132.81	-281.8	44.455	223.49	-387.13	69.106	191.23	-782.5	510.07	121.32	-415.03	386.51	187.75	-532.19	591.46	278.54	-515.69	1216.9	116.45	-394.94	296.52	173.7	-578.86	1010.2	269.71	-377.47	205.8	162.56	-238.65	77.424	153.6	-496.13	507.65	128.95	-854.42	279.76	81.941	-556.33	681.44	302.59	-692.84	771.34	-56.613	-1064.3	64.61	89.883	-968.09	110.46	129.08	-357.29	111.26	118.02	-588.08	770.56	315.73	-693.79	848.4	419.06
159	0.795	-702.89	811.12	474.31	-595.37	1113.8	-179.25	-524.49	976.9	-169.99	-452.79	867.5	-137.53	-746.8	598.01	-23.096	-791.16	500.24	-7.441	-805.28	356.79	75.904	-900.05	196.8	84.2	-488.35	704.85	264.45	-370.89	858.89	-140.13	-651.68	667.73	-17.424	-908.04	17.048	27.886	-864.45	35.976	114.45	-812.64	24.378	106.45	-591.39	1008.8	-19.148	-611.42	1622.7	44.265	-598.16	1271.1	-147.23	-667.27	1487.4	113.02	-766.83	986.01	444.79	-755.22	849.51	455.18	-787.69	998.32	177.72	-788.17	1269.8	114.58	-717.92	684.04	-39.319	-794.38	999.77	100.59	-589.08	1439.1	-47.373	-994.23	92.469	46.206	-607.17	1627.8	186.14	-684.97	1272.8	376.24	-636.19	1095.9	-114.18	-428.7	1621.1	83.408	-760.09	1135	410.95	-867.56	286.32	8.2437	-397.06	907.56	-90.891	-759.98	1406.2	238.39	-427.77	1622.8	159.72	-191.8	87.109	176.25	-776.8	1118.9	333.13	-417.91	277.73	234.82	-497.16	483.85	260.29	-422.48	25.612	132.25	-279.32	41.892	222.73	-383.91	68.193	190.56	-776.33	509.31	121.12	-408.35	385.58	187.17	-524.41	591.44	278.16	-508.95	1216.2	116.56	-389.18	295.43	173.03	-571.81	1009.3	269.64	-372.69	204.59	161.79	-235.5	74.049	152.71	-488.4	507.6	128.9	-850.99	279.67	81.7	-548.78	681.32	302.39	-686.6	770.57	-56.56	-1063.5	67.413	89.52	-966.77	111.85	128.69	-353.68	109.78	117.31	-580.78	770.32	315.74	-688.99	847.02	419.77
